HIERARCHY
ROOT Hips
{
  OFFSET 363.916 89.4452 202.859
  CHANNELS 6 Xposition Yposition Zposition Zrotation Xrotation Yrotation
  JOINT RightUpLeg
  {
    OFFSET -9.23154 -1.41984 0.0580437
    CHANNELS 6 Xposition Yposition Zposition Zrotation Xrotation Yrotation
    JOINT RightLeg
    {
      OFFSET 0.0758713 -41.8911 0.179098
      CHANNELS 6 Xposition Yposition Zposition Zrotation Xrotation Yrotation
      JOINT RightFoot
      {
        OFFSET -0.0130714 -43.0092 0.527065
        CHANNELS 6 Xposition Yposition Zposition Zrotation Xrotation Yrotation
        End Site
        {
          OFFSET 0 -7.69 17.5
        }
      }
    }
  }
  JOINT LeftUpLeg
  {
    OFFSET 9.19333 -1.7604 -0.07603
    CHANNELS 6 Xposition Yposition Zposition Zrotation Xrotation Yrotation
    JOINT LeftLeg
    {
      OFFSET -0.0291634 -41.8584 -0.150428
      CHANNELS 6 Xposition Yposition Zposition Zrotation Xrotation Yrotation
      JOINT LeftFoot
      {
        OFFSET 0.141288 -40.5593 0.46362
        CHANNELS 6 Xposition Yposition Zposition Zrotation Xrotation Yrotation
        End Site
        {
          OFFSET 0 -7.69 17.5
        }
      }
    }
  }
  JOINT Spine
  {
    OFFSET 0.210641 14.2925 0.0476591
    CHANNELS 6 Xposition Yposition Zposition Zrotation Xrotation Yrotation
    JOINT Spine1
    {
      OFFSET 0.127582 9.71293 0.00702011
      CHANNELS 6 Xposition Yposition Zposition Zrotation Xrotation Yrotation
      JOINT Spine2
      {
        OFFSET 0.0548246 10.1184 0.000188243
        CHANNELS 6 Xposition Yposition Zposition Zrotation Xrotation Yrotation
        JOINT Spine3
        {
          OFFSET 0.0655353 9.71202 0.0180752
          CHANNELS 6 Xposition Yposition Zposition Zrotation Xrotation Yrotation
          JOINT Neck
          {
            OFFSET 0.298473 10.3734 0.0736415
            CHANNELS 6 Xposition Yposition Zposition Zrotation Xrotation Yrotation
            JOINT Head
            {
              OFFSET 0.280613 9.47889 0.0401358
              CHANNELS 6 Xposition Yposition Zposition Zrotation Xrotation Yrotation
              End Site
              {
                OFFSET 0 15.95 0
              }
            }
          }
          JOINT RightShoulder
          {
            OFFSET -3.14668 6.92606 0.0342591
            CHANNELS 6 Xposition Yposition Zposition Zrotation Xrotation Yrotation
            JOINT RightArm
            {
              OFFSET -12.7049 -0.00605603 0.0442556
              CHANNELS 6 Xposition Yposition Zposition Zrotation Xrotation Yrotation
              JOINT RightForeArm
              {
                OFFSET -26.5018 -0.160471 0.0181642
                CHANNELS 6 Xposition Yposition Zposition Zrotation Xrotation Yrotation
                JOINT RightHand
                {
                  OFFSET -26.0023 -0.0211725 -0.0218708
                  CHANNELS 6 Xposition Yposition Zposition Zrotation Xrotation Yrotation
                  JOINT RightHandThumb1
                  {
                    OFFSET -2.48905 0.190105 3.12053
                    CHANNELS 6 Xposition Yposition Zposition Zrotation Xrotation Yrotation
                    JOINT RightHandThumb2
                    {
                      OFFSET -3.68274 0 0
                      CHANNELS 6 Xposition Yposition Zposition Zrotation Xrotation Yrotation
                      JOINT RightHandThumb3
                      {
                        OFFSET -2.55832 0 0
                        CHANNELS 6 Xposition Yposition Zposition Zrotation Xrotation Yrotation
                        End Site
                        {
                          OFFSET -2.194 0 0
                        }
                      }
                    }
                  }
                  JOINT RightInHandIndex
                  {
                    OFFSET -3.22368 0.508421 1.97842
                    CHANNELS 6 Xposition Yposition Zposition Zrotation Xrotation Yrotation
                    JOINT RightHandIndex1
                    {
                      OFFSET -5.21684 -0.091368 0.999158
                      CHANNELS 6 Xposition Yposition Zposition Zrotation Xrotation Yrotation
                      JOINT RightHandIndex2
                      {
                        OFFSET -3.61937 0 0
                        CHANNELS 6 Xposition Yposition Zposition Zrotation Xrotation Yrotation
                        JOINT RightHandIndex3
                        {
                          OFFSET -2.0521 0 0
                          CHANNELS 6 Xposition Yposition Zposition Zrotation Xrotation Yrotation
                          End Site
                          {
                            OFFSET -1.805 0 0
                          }
                        }
                      }
                    }
                  }
                  JOINT RightInHandMiddle
                  {
                    OFFSET -3.38211 0.517263 0.756737
                    CHANNELS 6 Xposition Yposition Zposition Zrotation Xrotation Yrotation
                    JOINT RightHandMiddle1
                    {
                      OFFSET -5.17411 -0.084 0.313895
                      CHANNELS 6 Xposition Yposition Zposition Zrotation Xrotation Yrotation
                      JOINT RightHandMiddle2
                      {
                        OFFSET -3.94947 0 0
                        CHANNELS 6 Xposition Yposition Zposition Zrotation Xrotation Yrotation
                        JOINT RightHandMiddle3
                        {
                          OFFSET -2.47579 0 0
                          CHANNELS 6 Xposition Yposition Zposition Zrotation Xrotation Yrotation
                          End Site
                          {
                            OFFSET -1.975 0 0
                          }
                        }
                      }
                    }
                  }
                  JOINT RightInHandRing
                  {
                    OFFSET -3.36516 0.537895 -0.128947
                    CHANNELS 6 Xposition Yposition Zposition Zrotation Xrotation Yrotation
                    JOINT RightHandRing1
                    {
                      OFFSET -4.63474 -0.022105 -0.478947
                      CHANNELS 6 Xposition Yposition Zposition Zrotation Xrotation Yrotation
                      JOINT RightHandRing2
                      {
                        OFFSET -3.44238 0 0
                        CHANNELS 6 Xposition Yposition Zposition Zrotation Xrotation Yrotation
                        JOINT RightHandRing3
                        {
                          OFFSET -2.3881 0 0
                          CHANNELS 6 Xposition Yposition Zposition Zrotation Xrotation Yrotation
                          End Site
                          {
                            OFFSET -1.857 0 0
                          }
                        }
                      }
                    }
                  }
                  JOINT RightInHandPinky
                  {
                    OFFSET -3.16105 0.469368 -1.20179
                    CHANNELS 6 Xposition Yposition Zposition Zrotation Xrotation Yrotation
                    JOINT RightHandPinky1
                    {
                      OFFSET -4.14105 -0.022105 -1.09053
                      CHANNELS 6 Xposition Yposition Zposition Zrotation Xrotation Yrotation
                      JOINT RightHandPinky2
                      {
                        OFFSET -2.75653 0 0
                        CHANNELS 6 Xposition Yposition Zposition Zrotation Xrotation Yrotation
                        JOINT RightHandPinky3
                        {
                          OFFSET -1.74189 0 0
                          CHANNELS 6 Xposition Yposition Zposition Zrotation Xrotation Yrotation
                          End Site
                          {
                            OFFSET -1.645 0 0
                          }
                        }
                      }
                    }
                  }
                }
              }
            }
          }
          JOINT LeftShoulder
          {
            OFFSET 3.2692 6.92084 -0.0240804
            CHANNELS 6 Xposition Yposition Zposition Zrotation Xrotation Yrotation
            JOINT LeftArm
            {
              OFFSET 12.8742 -0.025743 -0.065488
              CHANNELS 6 Xposition Yposition Zposition Zrotation Xrotation Yrotation
              JOINT LeftForeArm
              {
                OFFSET 26.5138 0.000826062 -0.0614275
                CHANNELS 6 Xposition Yposition Zposition Zrotation Xrotation Yrotation
                JOINT LeftHand
                {
                  OFFSET 25.9956 -0.0689373 0.00603348
                  CHANNELS 6 Xposition Yposition Zposition Zrotation Xrotation Yrotation
                  JOINT LeftHandThumb1
                  {
                    OFFSET 2.48905 0.190105 3.12053
                    CHANNELS 6 Xposition Yposition Zposition Zrotation Xrotation Yrotation
                    JOINT LeftHandThumb2
                    {
                      OFFSET 3.68274 0 0
                      CHANNELS 6 Xposition Yposition Zposition Zrotation Xrotation Yrotation
                      JOINT LeftHandThumb3
                      {
                        OFFSET 2.55832 0 0
                        CHANNELS 6 Xposition Yposition Zposition Zrotation Xrotation Yrotation
                        End Site
                        {
                          OFFSET 2.194 0 0
                        }
                      }
                    }
                  }
                  JOINT LeftInHandIndex
                  {
                    OFFSET 3.22368 0.508421 1.97842
                    CHANNELS 6 Xposition Yposition Zposition Zrotation Xrotation Yrotation
                    JOINT LeftHandIndex1
                    {
                      OFFSET 5.21684 -0.091368 0.999158
                      CHANNELS 6 Xposition Yposition Zposition Zrotation Xrotation Yrotation
                      JOINT LeftHandIndex2
                      {
                        OFFSET 3.61937 0 0
                        CHANNELS 6 Xposition Yposition Zposition Zrotation Xrotation Yrotation
                        JOINT LeftHandIndex3
                        {
                          OFFSET 2.0521 0 0
                          CHANNELS 6 Xposition Yposition Zposition Zrotation Xrotation Yrotation
                          End Site
                          {
                            OFFSET 1.805 0 0
                          }
                        }
                      }
                    }
                  }
                  JOINT LeftInHandMiddle
                  {
                    OFFSET 3.38211 0.517263 0.756737
                    CHANNELS 6 Xposition Yposition Zposition Zrotation Xrotation Yrotation
                    JOINT LeftHandMiddle1
                    {
                      OFFSET 5.17411 -0.084 0.313895
                      CHANNELS 6 Xposition Yposition Zposition Zrotation Xrotation Yrotation
                      JOINT LeftHandMiddle2
                      {
                        OFFSET 3.94947 0 0
                        CHANNELS 6 Xposition Yposition Zposition Zrotation Xrotation Yrotation
                        JOINT LeftHandMiddle3
                        {
                          OFFSET 2.47579 0 0
                          CHANNELS 6 Xposition Yposition Zposition Zrotation Xrotation Yrotation
                          End Site
                          {
                            OFFSET 1.975 0 0
                          }
                        }
                      }
                    }
                  }
                  JOINT LeftInHandRing
                  {
                    OFFSET 3.36516 0.537895 -0.128947
                    CHANNELS 6 Xposition Yposition Zposition Zrotation Xrotation Yrotation
                    JOINT LeftHandRing1
                    {
                      OFFSET 4.63474 -0.022105 -0.478947
                      CHANNELS 6 Xposition Yposition Zposition Zrotation Xrotation Yrotation
                      JOINT LeftHandRing2
                      {
                        OFFSET 3.44238 0 0
                        CHANNELS 6 Xposition Yposition Zposition Zrotation Xrotation Yrotation
                        JOINT LeftHandRing3
                        {
                          OFFSET 2.3881 0 0
                          CHANNELS 6 Xposition Yposition Zposition Zrotation Xrotation Yrotation
                          End Site
                          {
                            OFFSET 1.857 0 0
                          }
                        }
                      }
                    }
                  }
                  JOINT LeftInHandPinky
                  {
                    OFFSET 3.16105 0.469368 -1.20179
                    CHANNELS 6 Xposition Yposition Zposition Zrotation Xrotation Yrotation
                    JOINT LeftHandPinky1
                    {
                      OFFSET 4.14105 -0.022105 -1.09053
                      CHANNELS 6 Xposition Yposition Zposition Zrotation Xrotation Yrotation
                      JOINT LeftHandPinky2
                      {
                        OFFSET 2.75653 0 0
                        CHANNELS 6 Xposition Yposition Zposition Zrotation Xrotation Yrotation
                        JOINT LeftHandPinky3
                        {
                          OFFSET 1.74189 0 0
                          CHANNELS 6 Xposition Yposition Zposition Zrotation Xrotation Yrotation
                          End Site
                          {
                            OFFSET 1.645 0 0
                          }
                        }
                      }
                    }
                  }
                }
              }
            }
          }
        }
      }
    }
  }
}
MOTION
Frames:	3
Frame Time:	0.00833333
363.916 89.4452 202.859 24.5503 10.5627 -75.1569 -9.23154 -1.41984 0.0580437 -8.9471 -51.4581 -5.32348 0.0758713 -41.8911 0.179098 -3.57278 22.3018 -14.8936 -0.0130714 -43.0092 0.527065 10.2431 6.19237 29.5262 9.19333 -1.7604 -0.07603 13.4335 -42.259 0.537135 -0.0291634 -41.8584 -0.150428 -1.49198 34.9327 6.18625 0.141288 -40.5593 0.46362 -8.11104 -16.5264 -12.5223 0.210641 14.2925 0.0476591 -5.54787 15.493 11.7328 0.127582 9.71293 0.00702011 -1.08566 3.8304 2.77929 0.0548246 10.1184 0.000188243 -1.82589 6.06086 4.59206 0.0655353 9.71202 0.0180752 -0.392163 -0.378446 -0.13618 0.298473 10.3734 0.0736415 -0.39264 -0.379633 -0.134226 0.280613 9.47889 0.0401358 -7.24233 -6.92114 -2.32688 -3.14668 6.92606 0.0342591 1.25818 -13.5428 19.5213 -12.7049 -0.00605603 0.0442556 85.2935 -0.380543 48.9504 -26.5018 -0.160471 0.0181642 12.1719 -50.9073 1.76668 -26.0023 -0.0211725 -0.0218708 19.9072 -14.4393 -12.128 -2.48905 0.190105 3.12053 28.184 10.7294 19.1592 -3.68274 -7.10543e-15 0 -3.22962e-15 0 -10 -2.55832 -1.42109e-14 5.68434e-14 -1.63234e-14 -9.93923e-16 -10 -3.22368 0.508421 1.97842 2.57938e-31 3.37934e-15 -4.37326e-15 -5.21684 -0.091368 0.999158 19.9818 0.871897 2.3964 -3.61937 1.42109e-14 5.68434e-14 24 -1.02533e-14 -3.36443e-14 -2.0521 -1.42109e-14 5.68434e-14 20 -1.53412e-13 -8.84095e-13 -3.38211 0.517263 0.756737 2.57938e-31 3.37934e-15 -4.37326e-15 -5.17411 -0.084 0.313895 20 -3.97569e-16 -1.07344e-14 -3.94947 1.42109e-14 0 24 -8.3179e-15 -3.02153e-14 -2.47579 1.42109e-14 -5.68434e-14 20 -3.89618e-14 -2.26615e-13 -3.36516 0.537895 -0.128947 2.57938e-31 3.37934e-15 -4.37326e-15 -4.63474 -0.022105 -0.478947 19.9748 -1.02565 -2.81938 -3.44238 1.42109e-14 0 24 1.94436e-15 -1.90833e-14 -2.3881 0 0 20 -3.20043e-14 -1.52667e-13 -3.16105 0.469368 -1.20179 2.57938e-31 3.37934e-15 -4.37326e-15 -4.14105 -0.022105 -1.09053 19.7815 -3.00948 -8.30515 -2.75653 -2.84217e-14 5.68434e-14 24 4.96962e-15 -3.65764e-14 -1.74189 0 0 20 -6.75868e-15 -4.13472e-14 3.2692 6.92084 -0.0240804 17.5874 -16.3693 -36.8406 12.8742 -0.025743 -0.065488 -59.789 31.4446 -55.7767 26.5138 0.000826062 -0.0614275 27.8165 -48.4279 22.986 25.9956 -0.0689373 0.00603348 -15.0823 -11.0099 7.55808 2.48905 0.190105 3.12053 -28.184 10.7294 -19.1592 3.68274 -2.84217e-14 2.84217e-14 4.07085e-15 -4.77083e-15 10 2.55832 0 0 -9.12804e-15 -3.18055e-15 10 3.22368 0.508421 1.97842 -1.59028e-15 0 -1.19271e-15 5.21684 -0.091368 0.999158 -19.9818 0.871897 -2.3964 3.61937 -2.84217e-14 -5.68434e-14 -24 1.59028e-15 4.77083e-15 2.0521 0 -5.68434e-14 -20 7.95139e-16 1.59028e-15 3.38211 0.517263 0.756737 -1.59028e-15 0 -1.19271e-15 5.17411 -0.084 0.313895 -20 -3.18055e-15 4.77083e-15 3.94947 -2.84217e-14 -5.68434e-14 -24 3.97569e-15 1.59028e-15 2.47579 0 -5.68434e-14 -20 -1.19271e-15 -6.36111e-15 3.36516 0.537895 -0.128947 -1.59028e-15 0 -1.19271e-15 4.63474 -0.022105 -0.478947 -19.9748 -1.02565 2.81938 3.44238 2.84217e-14 0 -24 3.97569e-15 1.59028e-15 2.3881 0 0 -20 -1.98785e-15 -1.59028e-15 3.16105 0.469368 -1.20179 -1.59028e-15 0 -1.19271e-15 4.14105 -0.022105 -1.09053 -19.7815 -3.00948 8.30515 2.75653 0 0 -24 5.56597e-15 -0 1.74189 0 0 -20 3.97569e-16 -7.95139e-15 
363.966 89.4445 203.052 24.5086 10.3911 -75.5841 -9.2289 -1.41962 0.0588013 -8.86909 -51.355 -5.17514 0.0768085 -41.8907 0.179992 -3.54302 22.035 -14.7709 -0.023238 -43.0315 0.511352 10.2369 6.40268 29.7157 9.19737 -1.7595 -0.0768267 13.4229 -42.0736 0.643954 -0.0243141 -41.8584 -0.151714 -1.65076 35.0142 6.38251 0.114816 -40.5355 0.455392 -7.94797 -16.6463 -12.3052 0.213703 14.2924 0.0473072 -5.43552 15.4726 11.5905 0.127661 9.71294 0.00637742 -1.0617 3.81837 2.74826 0.0521631 10.1183 -0.0026383 -1.78646 6.04057 4.54314 0.062821 9.71201 0.0175977 -0.404988 -0.376258 -0.122313 0.300376 10.372 0.0737455 -0.405507 -0.377351 -0.120331 0.285178 9.47974 0.0405701 -7.46042 -6.86822 -2.08185 -3.14873 6.92568 0.0337737 1.27476 -13.4494 19.4553 -12.7055 -0.0060762 0.0436192 85.5098 -0.518743 48.611 -26.5015 -0.157411 0.018099 13.0734 -51.25 2.77371 -26.0026 -0.0234972 -0.0187837 19.9658 -14.4465 -11.9006 -2.48905 0.190105 3.12053 28.184 10.7294 19.1592 -3.68274 -2.13163e-14 0 1.3344e-15 -1.59028e-15 -10 -2.55832 7.10543e-15 -5.68434e-14 2.70385e-15 -2.98177e-15 -10 -3.22368 0.508421 1.97842 -3.18055e-15 -6.95746e-16 -4.57205e-15 -5.21684 -0.091368 0.999158 19.9818 0.871897 2.3964 -3.61937 2.84217e-14 0 24 3.95706e-15 1.53064e-14 -2.0521 1.42109e-14 5.68434e-14 20 -2.01766e-14 -1.56742e-13 -3.38211 0.517263 0.756737 -3.18055e-15 -6.95746e-16 -4.57205e-15 -5.17411 -0.084 0.313895 20 2.28602e-15 -2.78299e-15 -3.94947 1.42109e-14 0 24 -4.22417e-16 1.13307e-14 -2.47579 0 -5.68434e-14 20 3.38928e-14 1.92424e-13 -3.36516 0.537895 -0.128947 -3.18055e-15 -6.95746e-16 -4.57205e-15 -4.63474 -0.022105 -0.478947 19.9748 -1.02565 -2.81938 -3.44238 1.42109e-14 5.68434e-14 24 9.59757e-15 1.98785e-15 -2.3881 2.84217e-14 -5.68434e-14 20 -1.63003e-14 -8.38871e-14 -3.16105 0.469368 -1.20179 -3.18055e-15 -6.95746e-16 -4.57205e-15 -4.14105 -0.022105 -1.09053 19.7815 -3.00948 -8.30515 -2.75653 1.42109e-14 0 24 3.51134e-15 1.59028e-15 -1.74189 -1.42109e-14 0 20 -1.19271e-15 -2.46493e-14 3.26732 6.92095 -0.0242004 17.6121 -16.3564 -36.9524 12.8613 -0.0227762 -0.0657018 -59.8926 31.52 -55.5568 26.5137 -0.00662111 -0.0533239 27.5071 -47.8129 22.6154 25.9958 -0.064438 0.00708609 -15.1121 -10.9252 7.57106 2.48905 0.190105 3.12053 -28.184 10.7294 -19.1592 3.68274 0 -8.52651e-14 -1.02497e-14 3.18055e-15 10 2.55832 0 0 -9.81431e-16 5.56597e-15 10 3.22368 0.508421 1.97842 3.18055e-15 3.18055e-15 -3.97569e-16 5.21684 -0.091368 0.999158 -19.9818 0.871897 -2.3964 3.61937 0 0 -24 4.77083e-15 -1.11319e-14 2.0521 0 5.68434e-14 -20 1.98785e-15 -9.54166e-15 3.38211 0.517263 0.756737 3.18055e-15 3.18055e-15 -3.97569e-16 5.17411 -0.084 0.313895 -20 6.36111e-15 -7.95139e-15 3.94947 -2.84217e-14 0 -24 3.18055e-15 -6.36111e-15 2.47579 0 5.68434e-14 -20 3.97569e-15 -3.18055e-15 3.36516 0.537895 -0.128947 3.18055e-15 3.18055e-15 -3.97569e-16 4.63474 -0.022105 -0.478947 -19.9748 -1.02565 2.81938 3.44238 0 0 -24 3.18055e-15 -1.74931e-14 2.3881 -2.84217e-14 -5.68434e-14 -20 -2.38542e-15 -1.43125e-14 3.16105 0.469368 -1.20179 3.18055e-15 3.18055e-15 -3.97569e-16 4.14105 -0.022105 -1.09053 -19.7815 -3.00948 8.30515 2.75653 0 0 -24 6.36111e-15 -4.77083e-15 1.74189 0 5.68434e-14 -20 2.5842e-15 -1.11319e-14 
364.02 89.4436 203.255 24.4647 10.1982 -76.0464 -9.22681 -1.41939 0.059526 -8.76718 -51.2385 -4.9854 0.076897 -41.8903 0.190315 -3.50034 21.7982 -14.5851 -0.048078 -43.056 0.527046 10.2257 6.55742 29.8618 9.31812 -1.72762 -0.077889 12.947 -41.8514 -0.214935 0.098415 -41.8584 -0.152047 -1.94692 35.0591 7.40758 0.092663 -40.511 0.458407 -7.78073 -16.78 -12.0655 0.215607 14.2923 0.04713 -5.33789 15.4481 11.4623 0.127345 9.71294 0.00542774 -1.04111 3.80597 2.72003 0.0493166 10.1182 -0.00532236 -1.7525 6.01968 4.4983 0.0599611 9.71201 0.0171011 -0.417699 -0.374152 -0.108142 0.301628 10.3704 0.0738776 -0.418252 -0.375155 -0.106152 0.288394 9.4806 0.0406202 -7.67625 -6.80942 -1.83173 -3.15074 6.92528 0.0332839 1.27386 -13.362 19.3943 -12.7208 -0.00597493 0.0430504 85.7284 -0.651001 48.3399 -26.5012 -0.136173 0.019881 13.9881 -51.6136 3.78153 -26.0079 -0.106544 0.147071 19.3124 -13.4447 -12.8902 -2.48905 0.190105 3.12053 28.184 10.7294 19.1592 -3.68274 -2.13163e-14 5.68434e-14 3.51003e-15 1.59028e-15 -10 -2.55832 -1.42109e-14 0 1.05651e-14 4.96962e-15 -10 -3.22368 0.508421 1.97842 -3.18055e-15 -3.08116e-15 1.98785e-16 -5.21684 -0.091368 0.999158 19.9818 0.871897 2.3964 -3.61937 0 -1.13687e-13 24 6.65929e-15 7.95139e-16 -2.0521 -2.84217e-14 0 20 -3.80673e-14 -2.23235e-13 -3.38211 0.517263 0.756737 -3.18055e-15 -3.08116e-15 1.98785e-16 -5.17411 -0.084 0.313895 20 -6.4605e-16 5.86415e-15 -3.94947 1.42109e-14 -5.68434e-14 24 3.38555e-16 1.43125e-14 -2.47579 -2.84217e-14 0 20 9.83984e-15 2.23633e-14 -3.36516 0.537895 -0.128947 -3.18055e-15 -3.08116e-15 1.98785e-16 -4.63474 -0.022105 -0.478947 19.9748 -1.02565 -2.81938 -3.44238 0 -5.68434e-14 24 5.53802e-15 1.03368e-14 -2.3881 -1.42109e-14 1.13687e-13 20 7.7526e-15 3.4191e-14 -3.16105 0.469368 -1.20179 -3.18055e-15 -3.08116e-15 1.98785e-16 -4.14105 -0.022105 -1.09053 19.7815 -3.00948 -8.30515 -2.75653 0 5.68434e-14 24 3.48184e-15 4.77083e-15 -1.74189 0 0 20 -3.18055e-15 -2.22639e-14 3.26541 6.92107 -0.0243307 17.6242 -16.3221 -37.0833 12.8498 -0.0215973 -0.0658911 -59.9617 31.5961 -55.3619 26.5137 -0.01448 -0.052783 27.2418 -47.1825 22.2641 25.9957 -0.037352 -0.031909 -15.1756 -12.3743 7.36953 2.48905 0.190105 3.12053 -28.184 10.7294 -19.1592 3.68274 0 -2.84217e-14 -6.45924e-15 0 10 2.55832 0 0 -3.22962e-15 0 10 3.22368 0.508421 1.97842 -1.59028e-15 1.59028e-15 -3.97569e-16 5.21684 -0.091368 0.999158 -19.9818 0.871897 -2.3964 3.61937 -2.84217e-14 0 -24 0 -1.11319e-14 2.0521 0 0 -20 1.19271e-15 -1.11319e-14 3.38211 0.517263 0.756737 -1.59028e-15 1.59028e-15 -3.97569e-16 5.17411 -0.084 0.313895 -20 0 -4.77083e-15 3.94947 0 -5.68434e-14 -24 2.38542e-15 -1.43125e-14 2.47579 0 0 -20 3.57812e-15 -1.43125e-14 3.36516 0.537895 -0.128947 -1.59028e-15 1.59028e-15 -3.97569e-16 4.63474 -0.022105 -0.478947 -19.9748 -1.02565 2.81938 3.44238 -2.84217e-14 -5.68434e-14 -24 3.18055e-15 -9.54166e-15 2.3881 0 0 -20 2.38542e-15 -1.11319e-14 3.16105 0.469368 -1.20179 -1.59028e-15 1.59028e-15 -3.97569e-16 4.14105 -0.022105 -1.09053 -19.7815 -3.00948 8.30515 2.75653 5.68434e-14 -5.68434e-14 -24 -1.59028e-15 -1.74931e-14 1.74189 -2.84217e-14 0 -20 9.14409e-15 -9.54166e-15 
